HIERARCHY
ROOT Hips
{
	OFFSET 0.000000 0.000000 0.000000
	CHANNELS 6 Xposition Yposition Zposition Zrotation Yrotation Xrotation 
	JOINT LowerBack
	{
		OFFSET 0.000000 0.000000 0.000000
		CHANNELS 3 Zrotation Yrotation Xrotation
		JOINT Spine
		{
			OFFSET 0.028270 2.035590 -0.193380
			CHANNELS 3 Zrotation Yrotation Xrotation
			JOINT Spine1
			{
				OFFSET 0.056720 2.048850 -0.042750
				CHANNELS 3 Zrotation Yrotation Xrotation
				JOINT Neck
				{
					OFFSET 0.000000 0.000000 0.000000
					CHANNELS 3 Zrotation Yrotation Xrotation
					JOINT Neck1
					{
						OFFSET -0.054170 1.746240 0.172020
						CHANNELS 3 Zrotation Yrotation Xrotation
						JOINT Head
						{
							OFFSET 0.104070 1.761360 -0.123970
							CHANNELS 3 Zrotation Yrotation Xrotation
							End Site
							{
								OFFSET 0.000000 0.000000 0.000000
							}
						}
					}
				}
				JOINT LeftShoulder
				{
					OFFSET 0.000000 0.000000 0.000000
					CHANNELS 3 Zrotation Yrotation Xrotation
					JOINT LeftArm
					{
						OFFSET 3.362410 1.200890 -0.311210
						CHANNELS 3 Zrotation Yrotation Xrotation
						JOINT LeftForeArm
						{
							OFFSET 4.983000 -0.000000 -0.000000
							CHANNELS 3 Zrotation Yrotation Xrotation
							JOINT LeftHand
							{
								OFFSET 3.483560 -0.000000 -0.000000
								CHANNELS 3 Zrotation Yrotation Xrotation
								JOINT LeftFingerBase
								{
									OFFSET 0.000000 0.000000 0.000000
									CHANNELS 3 Zrotation Yrotation Xrotation
									JOINT LeftHandIndex1
									{
										OFFSET 0.715260 -0.000000 -0.000000
										CHANNELS 3 Zrotation Yrotation Xrotation
										End Site
										{
											OFFSET 0.000000 0.000000 0.000000
										}
									}
								}
								JOINT LThumb
								{
									OFFSET 0.000000 0.000000 0.000000
									CHANNELS 3 Zrotation Yrotation Xrotation
									End Site
									{
										OFFSET 0.000000 0.000000 0.000000
									}
								}
							}
						}
					}
				}
				JOINT RightShoulder
				{
					OFFSET 0.000000 0.000000 0.000000
					CHANNELS 3 Zrotation Yrotation Xrotation
					JOINT RightArm
					{
						OFFSET -3.136600 1.374050 -0.404650
						CHANNELS 3 Zrotation Yrotation Xrotation
						JOINT RightForeArm
						{
							OFFSET -5.241900 -0.000000 -0.000000
							CHANNELS 3 Zrotation Yrotation Xrotation
							JOINT RightHand
							{
								OFFSET -3.444170 -0.000000 -0.000000
								CHANNELS 3 Zrotation Yrotation Xrotation
								JOINT RightFingerBase
								{
									OFFSET 0.000000 0.000000 0.000000
									CHANNELS 3 Zrotation Yrotation Xrotation
									JOINT RightHandIndex1
									{
										OFFSET -0.622530 -0.000000 -0.000000
										CHANNELS 3 Zrotation Yrotation Xrotation
										End Site
										{
											OFFSET 0.000000 0.000000 0.000000
										}
									}
								}
								JOINT RThumb
								{
									OFFSET 0.000000 0.000000 0.000000
									CHANNELS 3 Zrotation Yrotation Xrotation
									End Site
									{
										OFFSET 0.000000 0.000000 0.000000
									}
								}
							}
						}
					}
				}
			}
		}
	}
}
}
MOTION
Frames: 14
Frame Time: 0.008333
-0.012924 16.528028 0.783030 30.148056 60.786070 39.905197 0.322627 -3.779943 4.243310 -0.508553 -3.728588 -1.395466 -5.576448 -3.743316 2.751622 9.757669 -8.171914 -7.109160 -2.901327 -0.214796 0.001158 0.000000 0.000000 0.000000 -2.290516 10.259939 3.521924 -23.572871 -6.997035 -2.958811 -3.161358 -48.933889 0.018986 -12.774974 -0.886999 0.107572 -0.081645 0.072451 0.000000 0.000000 0.000000 0.000000 0.000000 0.000000 0.000000 15.116958 -7.840669 0.544023 59.657887 -6.619573 -27.471964 3.977176 6.090187 0.017941 2.101781 7.931281 0.139551 0.109943 -0.062552 -0.000000 0.000000 0.000000 0.000000 0.000000 0.000000 0.000000 
0.074575 16.528981 0.909777 28.514567 59.525645 38.673212 0.202907 -3.681194 3.975325 -0.540292 -3.630633 -1.454654 -5.617866 -3.647737 2.751988 10.006347 -7.842133 -7.063431 -2.880547 -0.213919 0.013706 0.000000 0.000000 0.000000 -2.077190 10.341933 3.524559 -24.099537 -5.624494 -1.647327 -3.284115 -48.088281 0.015668 -12.931164 -0.889408 0.107281 -0.091104 0.056024 0.000000 0.000000 0.000000 0.000000 0.000000 0.000000 0.000000 15.167081 -7.428970 0.583933 59.501108 -4.924381 -26.687818 3.989045 6.602498 0.017607 2.677640 7.685098 0.174564 0.105940 -0.062981 -0.000000 0.000000 0.000000 0.000000 0.000000 0.000000 0.000000 
0.157806 16.534614 1.038273 27.009791 58.161519 37.615198 0.014627 -3.587918 3.670574 -0.584042 -3.535913 -1.517780 -5.654779 -3.555286 2.760313 10.235785 -7.533241 -7.007723 -2.855815 -0.212894 0.028858 0.000000 0.000000 0.000000 -1.873521 10.439286 3.516006 -24.655362 -4.232029 -0.153961 -3.414616 -47.142526 0.011933 -13.084997 -0.851100 0.102181 -0.100600 0.038524 0.000000 0.000000 0.000000 0.000000 0.000000 0.000000 0.000000 15.188390 -7.043188 0.618358 59.453020 -3.118389 -25.630600 4.003381 7.366628 0.017366 3.338717 7.432693 0.212482 0.101565 -0.063532 -0.000000 0.000000 0.000000 0.000000 0.000000 0.000000 0.000000 
0.237269 16.545226 1.168043 25.626292 56.702606 36.714263 -0.226790 -3.497447 3.331996 -0.637122 -3.442138 -1.589248 -5.687062 -3.464242 2.759377 10.430635 -7.243435 -6.929032 -2.831465 -0.212270 0.050566 0.000000 0.000000 0.000000 -1.677437 10.455461 3.495497 -25.268493 -2.675341 1.478903 -3.546386 -46.172609 0.007667 -13.240103 -0.757508 0.090371 -0.109965 0.019722 0.000000 0.000000 0.000000 0.000000 0.000000 0.000000 0.000000 15.178451 -6.678760 0.652191 59.508857 -1.256831 -24.200394 4.020222 8.422502 0.017228 4.068482 7.180425 0.251904 0.096885 -0.064151 -0.000000 0.000000 0.000000 0.000000 0.000000 0.000000 0.000000 
0.313519 16.560929 1.298499 24.344723 55.154485 35.944541 -0.503395 -3.405968 2.970616 -0.695862 -3.345599 -1.663920 -5.712194 -3.370621 2.759688 10.584759 -6.984854 -6.843732 -2.808276 -0.211847 0.074053 0.000000 0.000000 0.000000 -1.500730 10.486115 3.459173 -25.941925 -1.134248 3.239761 -3.683283 -45.096298 0.003056 -13.385947 -0.615533 0.072551 -0.119172 0.000520 0.000000 0.000000 0.000000 0.000000 0.000000 0.000000 0.000000 15.146898 -6.344119 0.678817 59.645097 0.641819 -22.290342 4.038778 9.809506 0.017176 4.839934 6.932245 0.290830 0.091995 -0.064690 -0.000000 0.000000 0.000000 0.000000 0.000000 0.000000 0.000000 
0.387006 16.581641 1.429154 23.143596 53.520759 35.274939 -0.799993 -3.308298 2.596273 -0.757987 -3.241388 -1.743539 -5.730505 -3.269878 2.748803 10.692862 -6.748112 -6.746061 -2.790107 -0.212012 0.101069 0.000000 0.000000 0.000000 -1.338469 10.480783 3.407382 -26.697204 0.461096 5.086414 -3.820239 -43.961942 -0.001905 -13.524134 -0.419351 0.047819 -0.128034 -0.018954 0.000000 0.000000 0.000000 0.000000 0.000000 0.000000 0.000000 15.101065 -6.023380 0.702552 59.833334 2.519498 -19.824615 4.054619 11.561788 0.017170 5.616790 6.691186 0.327160 0.086918 -0.065120 -0.000000 0.000000 0.000000 0.000000 0.000000 0.000000 0.000000 
0.458138 16.607058 1.559592 22.002113 51.802069 34.675830 -1.105944 -3.199445 2.219673 -0.822132 -3.124653 -1.828848 -5.742392 -3.157442 2.717130 10.755713 -6.531759 -6.633818 -2.779922 -0.213029 0.132357 0.000000 0.000000 0.000000 -1.187030 10.396944 3.340353 -27.547849 2.172666 6.968534 -3.951851 -42.818918 -0.007195 -13.657671 -0.166277 0.015875 -0.136268 -0.038511 0.000000 0.000000 0.000000 0.000000 0.000000 0.000000 0.000000 15.053496 -5.709306 0.728475 60.027888 4.342397 -16.758669 4.060369 13.684643 0.017176 6.349073 6.465741 0.358492 0.081668 -0.065552 -0.000000 0.000000 0.000000 0.000000 0.000000 0.000000 0.000000 
0.527269 16.636561 1.689538 20.901954 49.996090 34.121262 -1.412463 -3.074967 1.853709 -0.886654 -2.990972 -1.915505 -5.745745 -3.028679 2.671675 10.777310 -6.325856 -6.518613 -2.777631 -0.214690 0.164408 0.000000 0.000000 0.000000 -1.045125 10.308800 3.259484 -28.497882 3.869690 8.868058 -4.079339 -41.622029 -0.012586 -13.777853 0.129010 -0.021581 -0.143777 -0.057333 0.000000 0.000000 0.000000 0.000000 0.000000 0.000000 0.000000 15.012147 -5.386824 0.754424 60.183570 6.101688 -13.170174 4.047173 16.154796 0.017169 7.005720 6.260978 0.384026 0.076085 -0.066215 -0.000000 0.000000 0.000000 0.000000 0.000000 0.000000 0.000000 
0.594654 16.669386 1.818910 19.833121 48.099011 33.592820 -1.717830 -2.931993 1.505962 -0.951571 -2.837490 -2.003994 -5.740236 -2.880933 2.606091 10.762319 -6.118857 -6.397506 -2.783623 -0.217066 0.198082 0.000000 0.000000 0.000000 -0.909444 10.186035 3.168039 -29.551379 5.604822 10.734840 -4.197860 -40.420878 -0.018004 -13.887388 0.462025 -0.064049 -0.150275 -0.075204 0.000000 0.000000 0.000000 0.000000 0.000000 0.000000 0.000000 14.979541 -5.041151 0.785653 60.262963 7.800333 -9.191740 4.007340 18.907372 0.017177 7.563973 6.087240 0.403961 0.070014 -0.067570 -0.000000 0.000000 0.000000 0.000000 0.000000 0.000000 0.000000 
0.660502 16.704558 1.947751 18.792002 46.106398 33.080396 -2.024620 -2.769537 1.181249 -1.017443 -2.663122 -2.093294 -5.725153 -2.713103 2.521367 10.718380 -5.919996 -6.273677 -2.796389 -0.220007 0.232545 0.000000 0.000000 0.000000 -0.781875 10.016887 3.068322 -30.704302 7.405786 12.514426 -4.303576 -39.255082 -0.023351 -13.987871 0.825501 -0.110729 -0.155459 -0.091895 0.000000 0.000000 0.000000 0.000000 0.000000 0.000000 0.000000 14.958753 -4.682210 0.826261 60.237997 9.490608 -4.953512 3.937912 21.843942 0.017283 8.005239 5.961901 0.419694 0.063468 -0.070137 -0.000000 0.000000 0.000000 0.000000 0.000000 0.000000 0.000000 
0.724963 16.741014 2.076211 17.780094 44.014048 32.580886 -2.336811 -2.588008 0.881452 -1.084778 -2.468159 -2.181341 -5.699191 -2.525260 2.424333 10.651288 -5.721941 -6.152194 -2.812845 -0.223198 0.266261 0.000000 0.000000 0.000000 -0.664811 9.839096 2.964680 -31.949457 9.217822 14.175351 -4.396435 -38.121753 -0.028424 -14.072911 1.202886 -0.159418 -0.159238 -0.106969 0.000000 0.000000 0.000000 0.000000 0.000000 0.000000 0.000000 14.941688 -4.303308 0.875964 60.113277 11.210825 -0.636571 3.840506 24.879074 0.017547 8.344561 5.885776 0.432827 0.056394 -0.074302 -0.000000 0.000000 0.000000 0.000000 0.000000 0.000000 0.000000 
0.788131 16.777644 2.204527 16.805942 41.819139 32.097009 -2.661526 -2.388612 0.605589 -1.154756 -2.253573 -2.267767 -5.661817 -2.318226 2.317546 10.564824 -5.472743 -6.029312 -2.830025 -0.226429 0.299957 0.000000 0.000000 0.000000 -0.554988 9.706587 2.866349 -33.278663 10.958355 15.703290 -4.479061 -37.003208 -0.033014 -14.137559 1.582356 -0.208312 -0.161752 -0.119955 0.000000 0.000000 0.000000 0.000000 0.000000 0.000000 0.000000 14.907332 -3.849226 0.930380 59.922870 12.922880 3.539905 3.716971 27.985689 0.017988 8.627581 5.837426 0.444855 0.048433 -0.080202 -0.000000 0.000000 0.000000 0.000000 0.000000 0.000000 0.000000 
0.850178 16.813399 2.332965 15.877435 39.522884 31.635783 -3.006621 -2.174893 0.347630 -1.228821 -2.022715 -2.352385 -5.613935 -2.095172 2.206743 10.468728 -5.217426 -5.910108 -2.845458 -0.229492 0.332522 0.000000 0.000000 0.000000 -0.462066 9.584988 2.773275 -34.680178 12.695592 17.028315 -4.548446 -35.956697 -0.037098 -14.182359 1.958739 -0.256809 -0.162840 -0.131031 0.000000 0.000000 0.000000 0.000000 0.000000 0.000000 0.000000 14.862262 -3.372372 0.993310 59.676511 14.718029 7.577718 3.575994 31.066389 0.018673 8.838877 5.837647 0.456980 0.040066 -0.088038 -0.000000 0.000000 0.000000 0.000000 0.000000 0.000000 0.000000 
0.911231 16.847374 2.461806 15.004258 37.130008 31.204769 -3.377861 -1.950504 0.101858 -1.307917 -1.779051 -2.435105 -5.556229 -1.859355 2.096878 10.367934 -4.946510 -5.794399 -2.856961 -0.232227 0.363960 0.000000 0.000000 0.000000 -0.391045 9.495919 2.690047 -36.142641 14.397966 18.118453 -4.606810 -34.985293 -0.040586 -14.204120 2.324929 -0.303505 -0.162701 -0.140110 0.000000 0.000000 0.000000 0.000000 0.000000 0.000000 0.000000 14.798487 -2.865581 1.062019 59.408508 16.598124 11.402064 3.423612 34.089769 0.019601 8.998700 5.880091 0.469900 0.031349 -0.097757 -0.000000 0.000000 0.000000 0.000000 0.000000 0.000000 0.000000 
